<svg xmlns="http://www.w3.org/2000/svg" viewBox="0 0 256 160"><defs><style>.cls-1{fill:#320e75;}.cls-2{fill:#321386;}.cls-3{fill:#321997;}.cls-4{fill:#321ea8;}.cls-5{fill:#3224b9;}.cls-6{fill:#f1ff75;}.cls-7{fill:#b8eeff;}.cls-8{fill:#d675ff;}.cls-9{fill:#1de8ff;}.cls-10{fill:#02cfe5;}.cls-11{fill:#66dbff;}.cls-12{fill:#45ecff;}.cls-13{fill:#edfbff;}.cls-14{fill:#c7f2ff;}.cls-15{fill:#1ce8ff;}.cls-16{fill:#fdffe8;}.cls-17{fill:#f7ffad;}.cls-18{fill:#00aeff;}.cls-19{fill:#e3e5ff;}.cls-20{fill:#ff80f0;}.cls-21{fill:#24e9ff;}.cls-22{fill:#01aeff;}</style></defs><g id="Layer_2" data-name="Layer 2"><g id="_ÎÓÈ_1" data-name="—ÎÓÈ_1"><rect class="cls-1" width="256" height="160"/><rect class="cls-2" y="45" width="256" height="29"/><rect class="cls-3" y="74" width="256" height="29"/><rect class="cls-4" y="103" width="256" height="29"/><rect class="cls-5" y="132" width="256" height="28"/><rect class="cls-6" x="209" y="156" width="1" height="1"/><rect class="cls-7" x="47" y="156" width="1" height="1"/><rect class="cls-7" x="175" y="154" width="1" height="1"/><rect class="cls-8" x="35" y="154" width="1" height="1"/><rect class="cls-8" x="34" y="154" width="1" height="1"/><rect class="cls-8" x="33" y="154" width="1" height="1"/><rect class="cls-7" x="20" y="154" width="1" height="1"/><rect class="cls-9" x="247" y="153" width="1" height="1"/><rect class="cls-9" x="246" y="153" width="1" height="1"/><rect class="cls-8" x="35" y="153" width="1" height="1"/><rect class="cls-8" x="34" y="153" width="1" height="1"/><rect class="cls-8" x="33" y="153" width="1" height="1"/><rect class="cls-9" x="247" y="152" width="1" height="1"/><rect class="cls-9" x="246" y="152" width="1" height="1"/><rect class="cls-6" x="133" y="155" width="1" height="1"/><rect class="cls-7" x="88" y="152" width="1" height="1"/><rect class="cls-8" x="35" y="152" width="1" height="1"/><rect class="cls-8" x="34" y="152" width="1" height="1"/><rect class="cls-8" x="33" y="152" width="1" height="1"/><rect class="cls-10" x="94" y="151" width="1" height="1"/><rect class="cls-11" x="228" y="144" width="1" height="1"/><rect class="cls-11" x="227" y="144" width="1" height="1"/><rect class="cls-12" x="94" y="150" width="1" height="1"/><rect class="cls-11" x="229" y="143" width="1" height="1"/><rect class="cls-13" x="228" y="143" width="1" height="1"/><rect class="cls-13" x="227" y="143" width="1" height="1"/><rect class="cls-11" x="226" y="143" width="1" height="1"/><rect class="cls-7" x="111" y="149" width="1" height="1"/><rect class="cls-12" x="95" y="149" width="1" height="1"/><rect class="cls-14" x="94" y="149" width="1" height="1"/><rect class="cls-12" x="93" y="149" width="1" height="1"/><rect class="cls-7" x="65" y="149" width="1" height="1"/><rect class="cls-11" x="229" y="142" width="1" height="1"/><rect class="cls-13" x="228" y="142" width="1" height="1"/><rect class="cls-13" x="227" y="142" width="1" height="1"/><rect class="cls-11" x="226" y="142" width="1" height="1"/><rect class="cls-7" x="149" y="148" width="1" height="1"/><rect class="cls-10" x="97" y="148" width="1" height="1"/><rect class="cls-12" x="96" y="148" width="1" height="1"/><rect class="cls-14" x="95" y="148" width="1" height="1"/><rect class="cls-14" x="94" y="148" width="1" height="1"/><rect class="cls-14" x="93" y="148" width="1" height="1"/><rect class="cls-12" x="92" y="148" width="1" height="1"/><rect class="cls-10" x="91" y="148" width="1" height="1"/><rect class="cls-7" x="5" y="148" width="1" height="1"/><rect class="cls-11" x="228" y="141" width="1" height="1"/><rect class="cls-11" x="227" y="141" width="1" height="1"/><rect class="cls-12" x="95" y="147" width="1" height="1"/><rect class="cls-14" x="94" y="147" width="1" height="1"/><rect class="cls-12" x="93" y="147" width="1" height="1"/><rect class="cls-7" x="179" y="146" width="1" height="1"/><rect class="cls-12" x="94" y="146" width="1" height="1"/><rect class="cls-10" x="94" y="145" width="1" height="1"/><rect class="cls-15" x="80" y="144" width="1" height="1"/><rect class="cls-15" x="79" y="144" width="1" height="1"/><rect class="cls-6" x="197" y="140" width="1" height="1"/><rect class="cls-6" x="196" y="140" width="1" height="1"/><rect class="cls-15" x="80" y="143" width="1" height="1"/><rect class="cls-15" x="79" y="143" width="1" height="1"/><rect class="cls-6" x="197" y="139" width="1" height="1"/><rect class="cls-6" x="196" y="139" width="1" height="1"/><rect class="cls-6" x="122" y="140" width="1" height="1"/><rect class="cls-10" x="9" y="139" width="1" height="1"/><rect class="cls-12" x="9" y="138" width="1" height="1"/><rect class="cls-15" x="140" y="137" width="1" height="1"/><rect class="cls-15" x="139" y="137" width="1" height="1"/><rect class="cls-12" x="10" y="137" width="1" height="1"/><rect class="cls-14" x="9" y="137" width="1" height="1"/><rect class="cls-12" x="8" y="137" width="1" height="1"/><rect class="cls-15" x="140" y="136" width="1" height="1"/><rect class="cls-15" x="139" y="136" width="1" height="1"/><rect class="cls-10" x="12" y="136" width="1" height="1"/><rect class="cls-12" x="11" y="136" width="1" height="1"/><rect class="cls-14" x="10" y="136" width="1" height="1"/><rect class="cls-14" x="9" y="136" width="1" height="1"/><rect class="cls-14" x="8" y="136" width="1" height="1"/><rect class="cls-12" x="7" y="136" width="1" height="1"/><rect class="cls-10" x="6" y="136" width="1" height="1"/><rect class="cls-6" x="26" y="136" width="1" height="1"/><rect class="cls-6" x="25" y="136" width="1" height="1"/><rect class="cls-12" x="10" y="135" width="1" height="1"/><rect class="cls-14" x="9" y="135" width="1" height="1"/><rect class="cls-12" x="8" y="135" width="1" height="1"/><rect class="cls-6" x="26" y="135" width="1" height="1"/><rect class="cls-6" x="25" y="135" width="1" height="1"/><rect class="cls-12" x="9" y="134" width="1" height="1"/><rect class="cls-10" x="9" y="133" width="1" height="1"/><rect class="cls-7" x="170" y="132" width="1" height="1"/><rect class="cls-7" x="64" y="132" width="1" height="1"/><rect class="cls-11" x="55" y="132" width="1" height="1"/><rect class="cls-11" x="54" y="132" width="1" height="1"/><rect class="cls-7" x="229" y="131" width="1" height="1"/><rect class="cls-11" x="56" y="131" width="1" height="1"/><rect class="cls-13" x="55" y="131" width="1" height="1"/><rect class="cls-13" x="54" y="131" width="1" height="1"/><rect class="cls-11" x="53" y="131" width="1" height="1"/><rect class="cls-7" x="247" y="130" width="1" height="1"/><rect class="cls-11" x="56" y="130" width="1" height="1"/><rect class="cls-13" x="55" y="130" width="1" height="1"/><rect class="cls-13" x="54" y="130" width="1" height="1"/><rect class="cls-11" x="53" y="130" width="1" height="1"/><rect class="cls-12" x="161" y="129" width="1" height="1"/><rect class="cls-11" x="55" y="129" width="1" height="1"/><rect class="cls-11" x="54" y="129" width="1" height="1"/><rect class="cls-6" x="240" y="128" width="1" height="1"/><rect class="cls-12" x="161" y="128" width="1" height="1"/><rect class="cls-16" x="118" y="128" width="1" height="1"/><rect class="cls-16" x="117" y="128" width="1" height="1"/><rect class="cls-7" x="98" y="128" width="1" height="1"/><rect class="cls-12" x="161" y="127" width="1" height="1"/><rect class="cls-16" x="118" y="127" width="1" height="1"/><rect class="cls-16" x="117" y="127" width="1" height="1"/><rect class="cls-7" x="43" y="127" width="1" height="1"/><rect class="cls-12" x="163" y="126" width="1" height="1"/><rect class="cls-12" x="162" y="126" width="1" height="1"/><rect class="cls-12" x="160" y="126" width="1" height="1"/><rect class="cls-12" x="159" y="126" width="1" height="1"/><rect class="cls-16" x="116" y="126" width="1" height="1"/><rect class="cls-12" x="161" y="125" width="1" height="1"/><rect class="cls-17" x="115" y="125" width="1" height="1"/><rect class="cls-12" x="161" y="124" width="1" height="1"/><rect class="cls-16" x="114" y="124" width="1" height="1"/><rect class="cls-7" x="218" y="123" width="1" height="1"/><rect class="cls-12" x="161" y="123" width="1" height="1"/><rect class="cls-18" x="92" y="123" width="1" height="1"/><rect class="cls-18" x="91" y="123" width="1" height="1"/><rect class="cls-18" x="90" y="123" width="1" height="1"/><rect class="cls-7" x="190" y="122" width="1" height="1"/><rect class="cls-17" x="112" y="122" width="1" height="1"/><rect class="cls-18" x="92" y="122" width="1" height="1"/><rect class="cls-18" x="91" y="122" width="1" height="1"/><rect class="cls-18" x="90" y="122" width="1" height="1"/><rect class="cls-17" x="111" y="121" width="1" height="1"/><rect class="cls-18" x="92" y="121" width="1" height="1"/><rect class="cls-18" x="91" y="121" width="1" height="1"/><rect class="cls-18" x="90" y="121" width="1" height="1"/><rect class="cls-7" x="153" y="120" width="1" height="1"/><rect class="cls-7" x="78" y="120" width="1" height="1"/><rect class="cls-7" x="130" y="119" width="1" height="1"/><rect class="cls-17" x="109" y="119" width="1" height="1"/><rect class="cls-17" x="108" y="118" width="1" height="1"/><rect class="cls-8" x="106" y="116" width="1" height="1"/><rect class="cls-15" x="234" y="115" width="1" height="1"/><rect class="cls-15" x="233" y="115" width="1" height="1"/><rect class="cls-15" x="234" y="114" width="1" height="1"/><rect class="cls-15" x="233" y="114" width="1" height="1"/><rect class="cls-7" x="131" y="113" width="1" height="1"/><rect class="cls-8" x="103" y="113" width="1" height="1"/><rect class="cls-7" x="65" y="113" width="1" height="1"/><rect class="cls-7" x="29" y="113" width="1" height="1"/><rect class="cls-18" x="3" y="113" width="1" height="1"/><rect class="cls-18" x="2" y="113" width="1" height="1"/><rect class="cls-18" x="1" y="113" width="1" height="1"/><rect class="cls-7" x="22" y="112" width="1" height="1"/><rect class="cls-18" x="3" y="112" width="1" height="1"/><rect class="cls-18" x="2" y="112" width="1" height="1"/><rect class="cls-18" x="1" y="112" width="1" height="1"/><rect class="cls-8" x="101" y="111" width="1" height="1"/><rect class="cls-18" x="3" y="111" width="1" height="1"/><rect class="cls-18" x="2" y="111" width="1" height="1"/><rect class="cls-18" x="1" y="111" width="1" height="1"/><rect class="cls-8" x="198" y="109" width="1" height="1"/><rect class="cls-8" x="197" y="109" width="1" height="1"/><rect class="cls-8" x="196" y="109" width="1" height="1"/><rect class="cls-7" x="175" y="109" width="1" height="1"/><rect class="cls-8" x="198" y="108" width="1" height="1"/><rect class="cls-8" x="197" y="108" width="1" height="1"/><rect class="cls-8" x="196" y="108" width="1" height="1"/><rect class="cls-8" x="198" y="107" width="1" height="1"/><rect class="cls-8" x="197" y="107" width="1" height="1"/><rect class="cls-8" x="196" y="107" width="1" height="1"/><rect class="cls-7" x="95" y="102" width="1" height="1"/><rect class="cls-17" x="36" y="102" width="1" height="1"/><rect class="cls-15" x="61" y="101" width="1" height="1"/><rect class="cls-15" x="60" y="101" width="1" height="1"/><rect class="cls-17" x="36" y="101" width="1" height="1"/><rect class="cls-7" x="245" y="100" width="1" height="1"/><rect class="cls-10" x="217" y="100" width="1" height="1"/><rect class="cls-15" x="61" y="100" width="1" height="1"/><rect class="cls-15" x="60" y="100" width="1" height="1"/><rect class="cls-17" x="36" y="100" width="1" height="1"/><rect class="cls-12" x="217" y="99" width="1" height="1"/><rect class="cls-17" x="159" y="99" width="1" height="1"/><rect class="cls-17" x="158" y="99" width="1" height="1"/><rect class="cls-17" x="38" y="99" width="1" height="1"/><rect class="cls-17" x="37" y="99" width="1" height="1"/><rect class="cls-17" x="35" y="99" width="1" height="1"/><rect class="cls-17" x="34" y="99" width="1" height="1"/><rect class="cls-12" x="218" y="98" width="1" height="1"/><rect class="cls-14" x="217" y="98" width="1" height="1"/><rect class="cls-12" x="216" y="98" width="1" height="1"/><rect class="cls-17" x="159" y="98" width="1" height="1"/><rect class="cls-17" x="158" y="98" width="1" height="1"/><rect class="cls-17" x="36" y="98" width="1" height="1"/><rect class="cls-10" x="220" y="97" width="1" height="1"/><rect class="cls-12" x="219" y="97" width="1" height="1"/><rect class="cls-14" x="218" y="97" width="1" height="1"/><rect class="cls-14" x="217" y="97" width="1" height="1"/><rect class="cls-14" x="216" y="97" width="1" height="1"/><rect class="cls-12" x="215" y="97" width="1" height="1"/><rect class="cls-10" x="214" y="97" width="1" height="1"/><rect class="cls-17" x="36" y="97" width="1" height="1"/><rect class="cls-12" x="218" y="96" width="1" height="1"/><rect class="cls-14" x="217" y="96" width="1" height="1"/><rect class="cls-12" x="216" y="96" width="1" height="1"/><rect class="cls-6" x="185" y="96" width="1" height="1"/><rect class="cls-15" x="114" y="96" width="1" height="1"/><rect class="cls-15" x="113" y="96" width="1" height="1"/><rect class="cls-17" x="36" y="96" width="1" height="1"/><rect class="cls-12" x="217" y="95" width="1" height="1"/><rect class="cls-15" x="114" y="95" width="1" height="1"/><rect class="cls-15" x="113" y="95" width="1" height="1"/><rect class="cls-7" x="77" y="95" width="1" height="1"/><rect class="cls-10" x="217" y="94" width="1" height="1"/><rect class="cls-7" x="136" y="94" width="1" height="1"/><rect class="cls-7" x="93" y="94" width="1" height="1"/><rect class="cls-7" x="62" y="92" width="1" height="1"/><rect class="cls-7" x="222" y="91" width="1" height="1"/><rect class="cls-7" x="173" y="91" width="1" height="1"/><rect class="cls-6" x="13" y="90" width="1" height="1"/><rect class="cls-7" x="5" y="88" width="1" height="1"/><rect class="cls-15" x="236" y="85" width="1" height="1"/><rect class="cls-15" x="235" y="85" width="1" height="1"/><rect class="cls-15" x="236" y="84" width="1" height="1"/><rect class="cls-15" x="235" y="84" width="1" height="1"/><rect class="cls-7" x="39" y="83" width="1" height="1"/><rect class="cls-15" x="136" y="82" width="1" height="1"/><rect class="cls-15" x="135" y="82" width="1" height="1"/><rect class="cls-15" x="16" y="82" width="1" height="1"/><rect class="cls-15" x="15" y="82" width="1" height="1"/><rect class="cls-15" x="136" y="81" width="1" height="1"/><rect class="cls-15" x="135" y="81" width="1" height="1"/><rect class="cls-15" x="16" y="81" width="1" height="1"/><rect class="cls-15" x="15" y="81" width="1" height="1"/><rect class="cls-11" x="193" y="80" width="1" height="1"/><rect class="cls-11" x="192" y="80" width="1" height="1"/><rect class="cls-15" x="83" y="80" width="1" height="1"/><rect class="cls-15" x="82" y="80" width="1" height="1"/><rect class="cls-7" x="214" y="79" width="1" height="1"/><rect class="cls-11" x="194" y="79" width="1" height="1"/><rect class="cls-13" x="193" y="79" width="1" height="1"/><rect class="cls-13" x="192" y="79" width="1" height="1"/><rect class="cls-11" x="191" y="79" width="1" height="1"/><rect class="cls-7" x="112" y="79" width="1" height="1"/><rect class="cls-15" x="83" y="79" width="1" height="1"/><rect class="cls-15" x="82" y="79" width="1" height="1"/><rect class="cls-11" x="194" y="78" width="1" height="1"/><rect class="cls-13" x="193" y="78" width="1" height="1"/><rect class="cls-13" x="192" y="78" width="1" height="1"/><rect class="cls-11" x="191" y="78" width="1" height="1"/><rect class="cls-11" x="193" y="77" width="1" height="1"/><rect class="cls-11" x="192" y="77" width="1" height="1"/><rect class="cls-7" x="147" y="76" width="1" height="1"/><rect class="cls-7" x="52" y="74" width="1" height="1"/><rect class="cls-7" x="247" y="71" width="1" height="1"/><rect class="cls-18" x="173" y="71" width="1" height="1"/><rect class="cls-18" x="172" y="71" width="1" height="1"/><rect class="cls-18" x="171" y="71" width="1" height="1"/><rect class="cls-18" x="173" y="70" width="1" height="1"/><rect class="cls-18" x="172" y="70" width="1" height="1"/><rect class="cls-18" x="171" y="70" width="1" height="1"/><rect class="cls-18" x="173" y="69" width="1" height="1"/><rect class="cls-18" x="172" y="69" width="1" height="1"/><rect class="cls-18" x="171" y="69" width="1" height="1"/><rect class="cls-7" x="2" y="69" width="1" height="1"/><rect class="cls-19" x="227" y="67" width="1" height="1"/><rect class="cls-19" x="226" y="67" width="1" height="1"/><rect class="cls-7" x="130" y="67" width="1" height="1"/><rect class="cls-6" x="112" y="67" width="1" height="1"/><rect class="cls-6" x="111" y="67" width="1" height="1"/><rect class="cls-19" x="227" y="66" width="1" height="1"/><rect class="cls-19" x="226" y="66" width="1" height="1"/><rect class="cls-6" x="112" y="66" width="1" height="1"/><rect class="cls-6" x="111" y="66" width="1" height="1"/><rect class="cls-7" x="29" y="66" width="1" height="1"/><rect class="cls-19" x="228" y="65" width="1" height="1"/><rect class="cls-20" x="48" y="65" width="1" height="1"/><rect class="cls-20" x="47" y="65" width="1" height="1"/><rect class="cls-21" x="229" y="64" width="1" height="1"/><rect class="cls-6" x="155" y="64" width="1" height="1"/><rect class="cls-20" x="48" y="64" width="1" height="1"/><rect class="cls-20" x="47" y="64" width="1" height="1"/><rect class="cls-19" x="230" y="63" width="1" height="1"/><rect class="cls-20" x="195" y="62" width="1" height="1"/><rect class="cls-20" x="194" y="62" width="1" height="1"/><rect class="cls-21" x="232" y="61" width="1" height="1"/><rect class="cls-20" x="195" y="61" width="1" height="1"/><rect class="cls-20" x="194" y="61" width="1" height="1"/><rect class="cls-7" x="63" y="61" width="1" height="1"/><rect class="cls-11" x="13" y="61" width="1" height="1"/><rect class="cls-11" x="12" y="61" width="1" height="1"/><rect class="cls-19" x="233" y="60" width="1" height="1"/><rect class="cls-6" x="219" y="60" width="1" height="1"/><rect class="cls-11" x="14" y="60" width="1" height="1"/><rect class="cls-13" x="13" y="60" width="1" height="1"/><rect class="cls-13" x="12" y="60" width="1" height="1"/><rect class="cls-11" x="11" y="60" width="1" height="1"/><rect class="cls-11" x="14" y="59" width="1" height="1"/><rect class="cls-13" x="13" y="59" width="1" height="1"/><rect class="cls-13" x="12" y="59" width="1" height="1"/><rect class="cls-11" x="11" y="59" width="1" height="1"/><rect class="cls-21" x="235" y="58" width="1" height="1"/><rect class="cls-11" x="13" y="58" width="1" height="1"/><rect class="cls-11" x="12" y="58" width="1" height="1"/><rect class="cls-19" x="236" y="57" width="1" height="1"/><rect class="cls-7" x="137" y="57" width="1" height="1"/><rect class="cls-10" x="101" y="57" width="1" height="1"/><rect class="cls-7" x="85" y="61" width="1" height="1"/><rect class="cls-12" x="101" y="56" width="1" height="1"/><rect class="cls-21" x="238" y="55" width="1" height="1"/><rect class="cls-12" x="102" y="55" width="1" height="1"/><rect class="cls-14" x="101" y="55" width="1" height="1"/><rect class="cls-12" x="100" y="55" width="1" height="1"/><rect class="cls-10" x="104" y="54" width="1" height="1"/><rect class="cls-12" x="103" y="54" width="1" height="1"/><rect class="cls-14" x="102" y="54" width="1" height="1"/><rect class="cls-14" x="101" y="54" width="1" height="1"/><rect class="cls-14" x="100" y="54" width="1" height="1"/><rect class="cls-12" x="99" y="54" width="1" height="1"/><rect class="cls-10" x="98" y="54" width="1" height="1"/><rect class="cls-7" x="201" y="53" width="1" height="1"/><rect class="cls-12" x="102" y="53" width="1" height="1"/><rect class="cls-14" x="101" y="53" width="1" height="1"/><rect class="cls-12" x="100" y="53" width="1" height="1"/><rect class="cls-21" x="241" y="52" width="1" height="1"/><rect class="cls-7" x="119" y="52" width="1" height="1"/><rect class="cls-12" x="101" y="52" width="1" height="1"/><rect class="cls-7" x="223" y="51" width="1" height="1"/><rect class="cls-10" x="101" y="51" width="1" height="1"/><rect class="cls-20" x="253" y="50" width="1" height="1"/><rect class="cls-20" x="252" y="50" width="1" height="1"/><rect class="cls-21" x="243" y="50" width="1" height="1"/><rect class="cls-20" x="253" y="49" width="1" height="1"/><rect class="cls-20" x="252" y="49" width="1" height="1"/><rect class="cls-7" x="179" y="49" width="1" height="1"/><rect class="cls-6" x="61" y="49" width="1" height="1"/><rect class="cls-18" x="26" y="46" width="1" height="1"/><rect class="cls-18" x="25" y="46" width="1" height="1"/><rect class="cls-18" x="24" y="46" width="1" height="1"/><rect class="cls-15" x="142" y="45" width="1" height="1"/><rect class="cls-15" x="141" y="45" width="1" height="1"/><rect class="cls-18" x="26" y="45" width="1" height="1"/><rect class="cls-18" x="25" y="45" width="1" height="1"/><rect class="cls-18" x="24" y="45" width="1" height="1"/><rect class="cls-7" x="7" y="45" width="1" height="1"/><rect class="cls-17" x="226" y="44" width="1" height="1"/><rect class="cls-15" x="142" y="44" width="1" height="1"/><rect class="cls-15" x="141" y="44" width="1" height="1"/><rect class="cls-7" x="48" y="44" width="1" height="1"/><rect class="cls-18" x="26" y="44" width="1" height="1"/><rect class="cls-18" x="25" y="44" width="1" height="1"/><rect class="cls-18" x="24" y="44" width="1" height="1"/><rect class="cls-17" x="226" y="43" width="1" height="1"/><rect class="cls-17" x="226" y="42" width="1" height="1"/><rect class="cls-7" x="165" y="42" width="1" height="1"/><rect class="cls-17" x="228" y="41" width="1" height="1"/><rect class="cls-17" x="227" y="41" width="1" height="1"/><rect class="cls-17" x="225" y="41" width="1" height="1"/><rect class="cls-17" x="224" y="41" width="1" height="1"/><rect class="cls-8" x="83" y="41" width="1" height="1"/><rect class="cls-8" x="82" y="41" width="1" height="1"/><rect class="cls-8" x="81" y="41" width="1" height="1"/><rect class="cls-17" x="226" y="40" width="1" height="1"/><rect class="cls-8" x="83" y="40" width="1" height="1"/><rect class="cls-8" x="82" y="40" width="1" height="1"/><rect class="cls-8" x="81" y="40" width="1" height="1"/><rect class="cls-17" x="226" y="39" width="1" height="1"/><rect class="cls-6" x="205" y="39" width="1" height="1"/><rect class="cls-6" x="204" y="39" width="1" height="1"/><rect class="cls-8" x="83" y="39" width="1" height="1"/><rect class="cls-8" x="82" y="39" width="1" height="1"/><rect class="cls-8" x="81" y="39" width="1" height="1"/><rect class="cls-17" x="226" y="38" width="1" height="1"/><rect class="cls-6" x="205" y="38" width="1" height="1"/><rect class="cls-6" x="204" y="38" width="1" height="1"/><rect class="cls-11" x="177" y="34" width="1" height="1"/><rect class="cls-11" x="176" y="34" width="1" height="1"/><rect class="cls-7" x="107" y="34" width="1" height="1"/><rect class="cls-7" x="62" y="34" width="1" height="1"/><rect class="cls-11" x="178" y="33" width="1" height="1"/><rect class="cls-13" x="177" y="33" width="1" height="1"/><rect class="cls-13" x="176" y="33" width="1" height="1"/><rect class="cls-11" x="175" y="33" width="1" height="1"/><rect class="cls-11" x="178" y="32" width="1" height="1"/><rect class="cls-13" x="177" y="32" width="1" height="1"/><rect class="cls-13" x="176" y="32" width="1" height="1"/><rect class="cls-11" x="175" y="32" width="1" height="1"/><rect class="cls-7" x="146" y="32" width="1" height="1"/><rect class="cls-11" x="177" y="31" width="1" height="1"/><rect class="cls-11" x="176" y="31" width="1" height="1"/><rect class="cls-7" x="213" y="30" width="1" height="1"/><rect class="cls-6" x="112" y="30" width="1" height="1"/><rect class="cls-7" x="73" y="30" width="1" height="1"/><rect class="cls-11" x="45" y="30" width="1" height="1"/><rect class="cls-11" x="44" y="30" width="1" height="1"/><rect class="cls-22" x="6" y="30" width="1" height="1"/><rect class="cls-18" x="5" y="30" width="1" height="1"/><rect class="cls-18" x="4" y="30" width="1" height="1"/><rect class="cls-6" x="247" y="29" width="1" height="1"/><rect class="cls-11" x="46" y="29" width="1" height="1"/><rect class="cls-13" x="45" y="29" width="1" height="1"/><rect class="cls-13" x="44" y="29" width="1" height="1"/><rect class="cls-11" x="43" y="29" width="1" height="1"/><rect class="cls-22" x="6" y="29" width="1" height="1"/><rect class="cls-18" x="5" y="29" width="1" height="1"/><rect class="cls-18" x="4" y="29" width="1" height="1"/><rect class="cls-11" x="46" y="28" width="1" height="1"/><rect class="cls-13" x="45" y="28" width="1" height="1"/><rect class="cls-13" x="44" y="28" width="1" height="1"/><rect class="cls-11" x="43" y="28" width="1" height="1"/><rect class="cls-22" x="6" y="28" width="1" height="1"/><rect class="cls-18" x="5" y="28" width="1" height="1"/><rect class="cls-18" x="4" y="28" width="1" height="1"/><rect class="cls-11" x="45" y="27" width="1" height="1"/><rect class="cls-11" x="44" y="27" width="1" height="1"/><rect class="cls-7" x="193" y="26" width="1" height="1"/><rect class="cls-7" x="95" y="26" width="1" height="1"/><rect class="cls-7" x="26" y="26" width="1" height="1"/><rect class="cls-7" x="235" y="25" width="1" height="1"/><rect class="cls-7" x="122" y="24" width="1" height="1"/><rect class="cls-10" x="202" y="22" width="1" height="1"/><rect class="cls-12" x="202" y="21" width="1" height="1"/><rect class="cls-18" x="147" y="21" width="1" height="1"/><rect class="cls-18" x="146" y="21" width="1" height="1"/><rect class="cls-18" x="145" y="21" width="1" height="1"/><rect class="cls-12" x="203" y="20" width="1" height="1"/><rect class="cls-14" x="202" y="20" width="1" height="1"/><rect class="cls-12" x="201" y="20" width="1" height="1"/><rect class="cls-18" x="147" y="20" width="1" height="1"/><rect class="cls-18" x="146" y="20" width="1" height="1"/><rect class="cls-18" x="145" y="20" width="1" height="1"/><rect class="cls-10" x="205" y="19" width="1" height="1"/><rect class="cls-12" x="204" y="19" width="1" height="1"/><rect class="cls-14" x="203" y="19" width="1" height="1"/><rect class="cls-14" x="202" y="19" width="1" height="1"/><rect class="cls-14" x="201" y="19" width="1" height="1"/><rect class="cls-12" x="200" y="19" width="1" height="1"/><rect class="cls-10" x="199" y="19" width="1" height="1"/><rect class="cls-18" x="147" y="19" width="1" height="1"/><rect class="cls-18" x="146" y="19" width="1" height="1"/><rect class="cls-18" x="145" y="19" width="1" height="1"/><rect class="cls-15" x="58" y="19" width="1" height="1"/><rect class="cls-15" x="57" y="19" width="1" height="1"/><rect class="cls-12" x="203" y="18" width="1" height="1"/><rect class="cls-14" x="202" y="18" width="1" height="1"/><rect class="cls-12" x="201" y="18" width="1" height="1"/><rect class="cls-15" x="58" y="18" width="1" height="1"/><rect class="cls-15" x="57" y="18" width="1" height="1"/><rect class="cls-7" x="23" y="18" width="1" height="1"/><rect class="cls-12" x="202" y="17" width="1" height="1"/><rect class="cls-7" x="158" y="17" width="1" height="1"/><rect class="cls-7" x="4" y="17" width="1" height="1"/><rect class="cls-10" x="202" y="16" width="1" height="1"/><rect class="cls-12" x="118" y="15" width="1" height="1"/><rect class="cls-18" x="225" y="12" width="1" height="1"/><rect class="cls-18" x="224" y="12" width="1" height="1"/><rect class="cls-18" x="223" y="12" width="1" height="1"/><rect class="cls-12" x="118" y="14" width="1" height="1"/><rect class="cls-7" x="82" y="14" width="1" height="1"/><rect class="cls-18" x="225" y="11" width="1" height="1"/><rect class="cls-18" x="224" y="11" width="1" height="1"/><rect class="cls-18" x="223" y="11" width="1" height="1"/><rect class="cls-12" x="118" y="13" width="1" height="1"/><rect class="cls-18" x="225" y="10" width="1" height="1"/><rect class="cls-18" x="224" y="10" width="1" height="1"/><rect class="cls-18" x="223" y="10" width="1" height="1"/><rect class="cls-7" x="174" y="12" width="1" height="1"/><rect class="cls-12" x="120" y="12" width="1" height="1"/><rect class="cls-12" x="119" y="12" width="1" height="1"/><rect class="cls-12" x="117" y="12" width="1" height="1"/><rect class="cls-12" x="116" y="12" width="1" height="1"/><rect class="cls-12" x="118" y="11" width="1" height="1"/><rect class="cls-12" x="118" y="10" width="1" height="1"/><rect class="cls-6" x="26" y="10" width="1" height="1"/><rect class="cls-6" x="25" y="10" width="1" height="1"/><rect class="cls-15" x="245" y="9" width="1" height="1"/><rect class="cls-15" x="244" y="9" width="1" height="1"/><rect class="cls-7" x="217" y="5" width="1" height="1"/><rect class="cls-12" x="118" y="9" width="1" height="1"/><rect class="cls-6" x="26" y="9" width="1" height="1"/><rect class="cls-6" x="25" y="9" width="1" height="1"/><rect class="cls-9" x="245" y="8" width="1" height="1"/><rect class="cls-9" x="244" y="8" width="1" height="1"/><rect class="cls-7" x="192" y="8" width="1" height="1"/><rect class="cls-7" x="46" y="8" width="1" height="1"/><rect class="cls-15" x="170" y="7" width="1" height="1"/><rect class="cls-15" x="169" y="7" width="1" height="1"/><rect class="cls-9" x="170" y="6" width="1" height="1"/><rect class="cls-9" x="169" y="6" width="1" height="1"/><rect class="cls-20" x="100" y="5" width="1" height="1"/><rect class="cls-20" x="99" y="5" width="1" height="1"/><rect class="cls-20" x="100" y="4" width="1" height="1"/><rect class="cls-20" x="99" y="4" width="1" height="1"/><rect class="cls-7" x="136" y="3" width="1" height="1"/><rect class="cls-7" x="70" y="3" width="1" height="1"/><rect class="cls-7" x="12" y="2" width="1" height="1"/></g></g></svg>