<svg xmlns="http://www.w3.org/2000/svg" width="402.484" height="277.832" viewBox="0 0 402.484 277.832">
  <g id="Group_69" data-name="Group 69" transform="translate(-386.881 -586.579)">
    <ellipse id="Ellipse_21" data-name="Ellipse 21" cx="108.208" cy="107.365" rx="108.208" ry="107.365" transform="translate(480.423 590.941)" fill="#fff"/>
    <path id="Path_63" data-name="Path 63" d="M199.858,39.57C196.69,53.827,185.9,60.23,173.721,59.734c-11.136-.453-22.3-.143-33.46-.081-11.8.065-21.187,6.665-24.764,17.335-.457,1.359-.679,2.8-1.07,4.451,4.738,0,9.011.106,13.27-.071a5.486,5.486,0,0,0,3.356-1.507c9.057-9.19,20.027-13.538,32.785-11.857,23.121,3.051,37.78,23.823,32.725,46.524C193.318,129.106,184,138.8,169.582,142.842s-27.087.264-37.9-10.037a5.87,5.87,0,0,0-3.589-1.59c-9.895-.129-19.791,0-29.686-.125a7.742,7.742,0,0,0-6.127,2.44A38.343,38.343,0,1,1,93.52,79.673c.619.647,1.364,1.634,2.075,1.655,5.08.143,10.168.076,15.176.076.159-.583.242-.818.284-1.061,2.5-14.363,14.106-24.11,28.718-24.112,12.077,0,24.154.049,36.231-.014,11.016-.058,19.761-8.745,20.639-20.233a113.942,113.942,0,1,0,3.215,3.585Z" transform="translate(469.578 591.539) rotate(-1)" fill="var(--blackberry)"/>
    <path id="Path_64" data-name="Path 64" d="M55.863,27.956A27.932,27.932,0,1,1,28.279,0,27.7,27.7,0,0,1,55.863,27.956ZM26.151,35.529a6.256,6.256,0,0,0-6.242-6.45,6.392,6.392,0,0,0-.086,12.784A6.2,6.2,0,0,0,26.151,35.529Zm0-15.236a6.162,6.162,0,0,0-6.186-6.447,6.294,6.294,0,0,0-6.434,6.267,6.221,6.221,0,0,0,6.253,6.408A6.073,6.073,0,0,0,26.151,20.293ZM42.357,35.6a6.278,6.278,0,0,0-6.175-6.517,6.531,6.531,0,0,0-6.506,6.29,6.417,6.417,0,0,0,6.281,6.489A6.229,6.229,0,0,0,42.357,35.6Zm0-15.365A6.142,6.142,0,0,0,36.1,13.854a6.4,6.4,0,0,0-6.431,6.318,6.314,6.314,0,0,0,6.364,6.353A6.054,6.054,0,0,0,42.357,20.235Z" transform="translate(603.057 667.44) rotate(-1)" fill="var(--purple1)"/>
    <path id="Path_65" data-name="Path 65" d="M55.862,27.911A27.931,27.931,0,1,1,28.235,0,27.688,27.688,0,0,1,55.862,27.911ZM28.037,44.5c5.095-.021,4.763.531,4.761-4.719V37.269c0-3.947.005-3.88,4-3.963,8.532-.176,6.87,1.657,7.079-7.651.034-1.514-.633-2.168-2.089-2.115q-2.76.1-5.519.224c-3.037.141-3.561-.333-3.577-3.286-.007-1.174.012-2.348,0-3.52-.069-4.693.784-4.5-4.409-4.488-5.935.011-5.08-.457-5.16,5.057-.1,6.871,1.151,6.2-6.323,6.247-5.621.033-4.747-.506-4.767,4.853-.019,5.068-.7,4.684,4.722,4.691,6.371.007,6.38,0,6.367,6.316C23.114,44.885,22.763,44.52,28.037,44.5Z" transform="translate(509.472 669.074) rotate(-1)" fill="var(--purple1)"/>
    <path id="Path_66" data-name="Path 66" d="M9.912,0V2.722H.185L0,0Z" transform="translate(574.385 696.062) rotate(-1)" fill="var(--green)"/>
    <path id="Path_67" data-name="Path 67" d="M.129,2.685,0,0H9.9l.139,2.685Z" transform="translate(585.852 695.833) rotate(-1)" fill="var(--green)"/>
    <path id="Path_68" data-name="Path 68" d="M12.618,6.45A6.2,6.2,0,0,1,6.29,12.784,6.281,6.281,0,0,1,0,6.36,6.327,6.327,0,0,1,6.376,0,6.257,6.257,0,0,1,12.618,6.45Z" transform="translate(617.096 696.279) rotate(-1)" fill="var(--green)"/>
    <path id="Path_69" data-name="Path 69" d="M12.62,6.447a6.073,6.073,0,0,1-6.367,6.228A6.22,6.22,0,0,1,0,6.267,6.294,6.294,0,0,1,6.435,0,6.162,6.162,0,0,1,12.62,6.447Z" transform="translate(616.828 681.048) rotate(-1)" fill="var(--green)"/>
    <path id="Path_70" data-name="Path 70" d="M12.683,6.518a6.229,6.229,0,0,1-6.4,6.261A6.418,6.418,0,0,1,0,6.291,6.531,6.531,0,0,1,6.507,0,6.278,6.278,0,0,1,12.683,6.518Z" transform="translate(633.234 695.999) rotate(-1)" fill="var(--green)"/>
    <path id="Path_71" data-name="Path 71" d="M12.684,6.381a6.054,6.054,0,0,1-6.32,6.29A6.314,6.314,0,0,1,0,6.318,6.4,6.4,0,0,1,6.431,0,6.142,6.142,0,0,1,12.684,6.381Z" transform="translate(632.967 680.774) rotate(-1)" fill="var(--green)"/>
    <path id="Path_72" data-name="Path 72" d="M16.043,32.038c-5.274.018-4.923.383-4.915-4.867.012-6.314,0-6.309-6.367-6.316-5.426-.007-4.742.377-4.722-4.691.019-5.359-.855-4.82,4.767-4.853,7.474-.048,6.225.624,6.323-6.247.079-5.514-.776-5.047,5.16-5.057C21.481,0,20.628-.2,20.7,4.494c.016,1.172,0,2.346,0,3.52.016,2.953.539,3.427,3.577,3.286q2.761-.127,5.519-.224c1.456-.053,2.122.6,2.089,2.115-.21,9.308,1.453,7.474-7.079,7.651-4,.083-4,.016-4,3.963v2.514C20.806,32.568,21.138,32.017,16.043,32.038Z" transform="translate(521.682 681.327) rotate(-1)" fill="var(--green)"/>
    <path id="Path_73" data-name="Path 73" d="M4.938,3.48,0,3.665.564.506,14.081,0l-.6,3.161-4.939.185L5.14,21.912l-3.575.132Z" transform="translate(479.402 842.371) rotate(-1)" fill="var(--purple1)"/>
    <path id="Path_74" data-name="Path 74" d="M10.649,10.808a3.86,3.86,0,0,0,.1-.844c-.046-1.2-.876-1.65-2.078-1.6-1.333.048-2.621,1.229-3.425,2.359l-2,11.009L0,21.846,3.968.122,7.217,0,5.731,8.079a6.442,6.442,0,0,1,4.555-2.628c2.339-.088,3.816,1.119,3.89,3.09a8.049,8.049,0,0,1-.122,1.137L11.924,21.4l-3.215.12Z" transform="translate(492.201 841.925) rotate(-1)" fill="var(--purple1)"/>
    <path id="Path_75" data-name="Path 75" d="M7.624.006c3.508-.131,5.77,2.018,5.911,5.8A14.728,14.728,0,0,1,13.2,9.051l-9.976.372a4.406,4.406,0,0,0-.088,1.134C3.2,12.2,4.4,13.873,7,13.778a5.51,5.51,0,0,0,3.425-1.519l1.183,2.059a7.488,7.488,0,0,1-4.9,2.122c-4,.15-6.552-2.084-6.7-6.09C-.155,6.054,2.586.194,7.624.006ZM10.6,5.654a2.892,2.892,0,0,0-3.14-3.022C5.251,2.715,3.813,5.1,3.529,7.113l6.986-.259A4.826,4.826,0,0,0,10.6,5.654Z" transform="translate(508.535 846.582) rotate(-1)" fill="var(--purple1)"/>
    <path id="Path_76" data-name="Path 76" d="M0,16.415a8.517,8.517,0,0,1,.129-1.784L2.7.561,6.3.427,3.71,14.563A8.657,8.657,0,0,0,3.6,16.054c.076,2,1.423,3.215,3.6,3.134,2.535-.093,3.776-1.692,4.317-4.592L14.167.134,17.773,0,15.126,14.429c-.89,4.886-3.256,7.756-8.033,7.933C2.9,22.518.145,20.195,0,16.415Z" transform="translate(531.668 839.378) rotate(-1)" fill="var(--purple1)"/>
    <path id="Path_77" data-name="Path 77" d="M10.649,5.362a3.858,3.858,0,0,0,.1-.844c-.044-1.2-.876-1.65-1.914-1.611A5.12,5.12,0,0,0,5.243,5.24L3.249,16.28,0,16.4,2.891.667,6.142.547,5.731,2.633A6.442,6.442,0,0,1,10.286,0c2.306-.086,3.815,1.086,3.89,3.09a7.355,7.355,0,0,1-.122,1.137L11.924,15.956l-3.249.122Z" transform="translate(549.531 844.244) rotate(-1)" fill="var(--purple1)"/>
    <path id="Path_78" data-name="Path 78" d="M2.893,6.728l3.251-.12L3.251,22.341,0,22.461ZM5.472,0A1.779,1.779,0,0,1,7.356,1.678a2.3,2.3,0,0,1-2.188,2.38A1.769,1.769,0,0,1,3.251,2.381,2.326,2.326,0,0,1,5.472,0Z" transform="translate(565.178 837.323) rotate(-1)" fill="var(--purple1)"/>
    <path id="Path_79" data-name="Path 79" d="M0,.518,3.348.393,4.631,12.121,10.334.132,13.875,0,5.784,15.927l-3.51.131Z" transform="translate(573.415 843.198) rotate(-1)" fill="var(--purple1)"/>
    <path id="Path_80" data-name="Path 80" d="M7.624.006c3.508-.13,5.768,2.017,5.911,5.8A14.646,14.646,0,0,1,13.2,9.051l-9.976.372a4.49,4.49,0,0,0-.088,1.134C3.2,12.2,4.4,13.874,7,13.777a5.5,5.5,0,0,0,3.425-1.518l1.185,2.059a7.492,7.492,0,0,1-4.9,2.122c-3.994.15-6.552-2.085-6.7-6.09C-.154,6.052,2.587.193,7.624.006ZM10.6,5.654A2.888,2.888,0,0,0,7.462,2.632C5.251,2.715,3.813,5.1,3.53,7.113l6.986-.259A4.828,4.828,0,0,0,10.6,5.654Z" transform="translate(586.82 842.305) rotate(-1)" fill="var(--purple1)"/>
    <path id="Path_81" data-name="Path 81" d="M2.891.642,6.142.52,5.734,2.671A5.753,5.753,0,0,1,10.547,0L9.921,3.226A4.1,4.1,0,0,0,8.811,3.14,4.869,4.869,0,0,0,5.19,5.505L3.251,16.253,0,16.373Z" transform="translate(601.713 841.417) rotate(-1)" fill="var(--purple1)"/>
    <path id="Path_82" data-name="Path 82" d="M1.805,11.926A5.289,5.289,0,0,0,6.076,13.9a2.333,2.333,0,0,0,2.452-2.26C8.49,10.575,7.3,10.006,5.941,9.375,4.151,8.537,2.062,7.547,1.978,5.222,1.879,2.606,3.771.139,7.411.005A7.006,7.006,0,0,1,12.826,2.1L11.18,4.231A4.658,4.658,0,0,0,7.441,2.558c-1.493.056-2.373.9-2.332,2C5.142,5.46,6.3,6,7.626,6.628c1.823.871,4.04,1.888,4.13,4.31.108,2.842-2.075,5.384-5.747,5.519A7.452,7.452,0,0,1,0,14.159Z" transform="translate(611.057 840.99) rotate(-1)" fill="var(--purple1)"/>
    <path id="Path_83" data-name="Path 83" d="M7.625.006c3.508-.13,5.768,2.018,5.911,5.8A14.732,14.732,0,0,1,13.2,9.051l-9.976.372a4.5,4.5,0,0,0-.088,1.135C3.2,12.2,4.4,13.874,7,13.778a5.51,5.51,0,0,0,3.425-1.52l1.183,2.059a7.484,7.484,0,0,1-4.9,2.122c-3.994.15-6.554-2.084-6.7-6.09C-.152,6.054,2.587.194,7.625.006ZM10.6,5.654A2.89,2.89,0,0,0,7.463,2.632C5.253,2.715,3.814,5.1,3.53,7.113l6.986-.259A4.739,4.739,0,0,0,10.6,5.654Z" transform="translate(625.222 840.204) rotate(-1)" fill="var(--purple1)"/>
    <path id="Path_84" data-name="Path 84" d="M7.621.006c3.9-.146,6.2,2.2,6.343,6.008.175,4.684-2.706,10.259-7.614,10.443-3.866.143-6.2-2.2-6.343-6.009C-.167,5.764,2.715.19,7.621.006ZM7.6,2.855c-2.794.1-4.384,4.594-4.277,7.437.086,2.293,1.232,3.383,3.051,3.316,2.8-.1,4.384-4.6,4.278-7.437C10.565,3.876,9.417,2.788,7.6,2.855Z" transform="translate(647.499 838.986) rotate(-1)" fill="var(--purple1)"/>
    <path id="Path_85" data-name="Path 85" d="M2.378,9.3.331,9.378.844,6.545l2.047-.078L3.162,5C3.725,1.779,5.354.1,7.92.005a5.356,5.356,0,0,1,2.655.516L9.53,2.986a2.016,2.016,0,0,0-1.151-.28c-1.1.04-1.727.776-2,2.177L6.14,6.348l2.6-.1L8.229,9.084l-2.6.1-2.382,12.9L0,22.2Z" transform="translate(663.424 832.212) rotate(-1)" fill="var(--purple1)"/>
    <path id="Path_86" data-name="Path 86" d="M10.265.006a6.623,6.623,0,0,1,6.887,4.92L14.009,6.143A3.974,3.974,0,0,0,9.993,3.186C6.224,3.327,3.541,9.9,3.712,14.452c.116,3.1,1.743,4.851,4.409,4.753a4.966,4.966,0,0,0,3.573-1.881l.7-3.809-4.548.169.6-3.192,7.961-.3-1.541,8.372a8.729,8.729,0,0,1-6.82,3.846C3.432,22.581.2,19.63.01,14.653-.226,8.321,3.571.255,10.265.006Z" transform="translate(679.494 831.213) rotate(-1)" fill="var(--purple1)"/>
    <path id="Path_87" data-name="Path 87" d="M11.449.221,14.664.1,11.771,15.832l-3.247.12L8.9,13.934A5.017,5.017,0,0,1,4.9,16.476c-2.859.108-4.753-1.828-4.89-5.447C-.156,6.606,2.139.178,6.851,0a4.3,4.3,0,0,1,4.19,2.4ZM6.254,13.579A4.14,4.14,0,0,0,9.39,11.263l1.192-6.385A3.158,3.158,0,0,0,7.544,2.823c-2.8.106-4.284,4.689-4.174,7.564C3.447,12.488,4.563,13.643,6.254,13.579Z" transform="translate(697.797 836.27) rotate(-1)" fill="var(--purple1)"/>
    <path id="Path_88" data-name="Path 88" d="M18.347,5.274a3.774,3.774,0,0,0,.1-.846A1.581,1.581,0,0,0,16.632,2.91c-1.236.046-2.459,1.223-3.2,2.318l-2,11.042-3.247.12,2-10.815a6.209,6.209,0,0,0,.062-.939c-.032-.873-.672-1.463-1.842-1.419-1.234.046-2.394,1.222-3.166,2.318L3.251,16.576,0,16.7,2.893.963,6.142.843,5.733,2.928A5.915,5.915,0,0,1,10.027.31c2.308-.086,3.5,1.423,3.536,2.359a.561.561,0,0,1-.023.227A6.268,6.268,0,0,1,18.215,0C20.2-.071,21.8,1.035,21.876,3.071a6.066,6.066,0,0,1-.118,1.171L19.627,15.966l-3.251.12Z" transform="translate(713.394 834.991) rotate(-1)" fill="var(--purple1)"/>
    <path id="Path_89" data-name="Path 89" d="M7.625.006c3.508-.13,5.768,2.018,5.911,5.8A14.624,14.624,0,0,1,13.2,9.051l-9.976.372a4.484,4.484,0,0,0-.088,1.133C3.2,12.2,4.4,13.874,7,13.778a5.51,5.51,0,0,0,3.425-1.519l1.185,2.059a7.493,7.493,0,0,1-4.9,2.122c-3.995.15-6.554-2.084-6.7-6.09C-.152,6.054,2.587.192,7.625.006ZM10.6,5.654A2.888,2.888,0,0,0,7.463,2.632C5.253,2.715,3.814,5.1,3.532,7.113l6.984-.259A4.735,4.735,0,0,0,10.6,5.654Z" transform="translate(737.356 834.076) rotate(-1)" fill="var(--purple1)"/>
    <path id="Path_90" data-name="Path 90" d="M1.805,11.926A5.285,5.285,0,0,0,6.075,13.9a2.333,2.333,0,0,0,2.454-2.258C8.49,10.575,7.3,10.006,5.939,9.375,4.151,8.537,2.062,7.547,1.976,5.222,1.879,2.606,3.771.139,7.409.005a7,7,0,0,1,5.417,2.1L11.18,4.233A4.657,4.657,0,0,0,7.441,2.558c-1.495.058-2.375.9-2.332,2C5.14,5.46,6.3,6,7.624,6.628c1.825.871,4.04,1.888,4.132,4.31.108,2.843-2.077,5.384-5.749,5.519A7.449,7.449,0,0,1,0,14.159Z" transform="translate(751.549 833.31) rotate(-1)" fill="var(--purple1)"/>
    <line id="Line_7" data-name="Line 7" x1="78.301" y2="2.805" transform="translate(393.33 846.088) rotate(-1)" fill="none" stroke="var(--purple1)" stroke-linecap="round" stroke-miterlimit="10" stroke-width="1.8"/>
    <rect id="Rectangle_42" data-name="Rectangle 42" width="23.543" height="0.441" transform="translate(572.868 693.537) rotate(-1)" fill="var(--green)"/>
    <rect id="Rectangle_43" data-name="Rectangle 43" width="23.543" height="0.441" transform="translate(572.996 700.92) rotate(-1)" fill="var(--green)"/>
    <path id="Path_91" data-name="Path 91" d="M65.51,74.9a2.648,2.648,0,0,1-2.478-1.724A122.3,122.3,0,0,0,2.564,5.569L1.427,4.99A2.644,2.644,0,1,1,3.865.3L4.945.846A127.524,127.524,0,0,1,67.99,71.333,2.649,2.649,0,0,1,65.51,74.9Z" transform="translate(634.57 587.769) rotate(-1)" fill="var(--green)"/>
    <path id="Path_92" data-name="Path 92" d="M4.618,108.608a2.643,2.643,0,0,1-2.6-2.205C-7.641,49.078,20.065,14.249,29.17,2.8c.529-.663,1-1.257,1.408-1.782a2.644,2.644,0,1,1,4.176,3.245c-.418.538-.9,1.149-1.446,1.83C23.644,18.248-2.035,50.525,7.228,105.525a2.642,2.642,0,0,1-2.168,3.046A2.7,2.7,0,0,1,4.618,108.608Z" transform="translate(456.921 621.796) rotate(-1)" fill="var(--green)"/>
    <path id="Path_93" data-name="Path 93" d="M6.394,16.721a2.647,2.647,0,0,1-2.486-1.743C2.387,10.775.812,5.86.1,3.368A2.645,2.645,0,0,1,5.189,1.92c.684,2.4,2.211,7.166,3.693,11.254a2.645,2.645,0,0,1-2.487,3.547Z" transform="translate(463.321 735.719) rotate(-1)" fill="var(--green)"/>
    <path id="Path_94" data-name="Path 94" d="M199.072,1.146l-1.486.148-11.472,8.752-1.07.763-.481,1.32-.07.254-.448-.746-5.327-7.751L177.3,1.9l-18.982.628-1.719.159-7.3,6.334-4.839-6.034-17.642.587-1.572.012-11.407,8.955-1.2,1.072-.256.909L106,6.143l-1.549-1.969-2.3.21L78.216,5.25,76.73,5.26l-12.174,8.9-1.178.929-.324,1.156L55.728,5.92l-26.181.869L28.032,6.8,16.064,15.761l-1.082.857L14.555,17.9.583,67.725,0,70.117l8.164,8.657,1.4,1.378,25.852-.86,1.38-.011,1.123-.746,9.722-7.5.078-.069-.576,2.054L46.5,75.17l2.738,3.668,19.04-.628,3.252-.518L72.1,75.97l2.149,2.318,2.08-.346,15.939-.531,3.4-.018.813-2.9,2.066,2.639h2.246l15.878-.529,3.4-.018.6-2.133,1.546,1.969,18.312-.6,3.4-.543.74-2.644,2.221,2.974,17.457-.58,3.4-.018,2.773-9.893,1.149,1.149,6.2,6.727,1.775,1.765,1.971-.328,31.9-1.054,3.746-.6.485-2.9,4.319-15.41.684-2.068-2.112-2.923,2.665-.016,1.014-3.043,4.576-16.177.49-2.415-1.888-2.3,2.6-.231.927-2.785,4.659-16.6.733-2.027L233.683,0ZM33.98,39.122l.686-2.445,1.712,2.366Zm20.242-.247,2.491-.016-.659,2.355Z" transform="translate(386.881 757.199) rotate(-1)" fill="var(--blackberry)"/>
    <path id="Path_95" data-name="Path 95" d="M155.538,2.076,154.133,0,119.514,1.146l-3.645.314-.356,1.957-1.67-2-18.456.611-3.171.275L91.4,4.745,89.628,2.222l-18.8.622-3.171.275-.651,1.952L65.324,3.056l-18.151.6-3.142.018-.876,2.407L41.572,3.839,22.93,4.483,19.88,4.5,18.814,7.431.683,71.987,0,74.054l2.732,3.779,18.528-.616L24.3,77.2l.947-2.367,2.124,2.477,2.179-.363,15.64-.422,3.038-.017,1.119-2.8,1.837-6.534.466.465,5.784,6.686,1.617,1.615,26.273-.873,1.6-.012,10.795-7.728-.4,1.441-.479,2.744,3.25,3.243,1.969-.329L133.9,73.376l1.716-.253,10.413-8,1.1-1.059.339-.849L152.3,46.085,152.975,44l-4.367-6.027L155.364,32l.945-.675.48-1.32L161.5,13.262l.427-2.3Z" transform="translate(626.107 747.646) rotate(-1)" fill="var(--blackberry)"/>
    <ellipse id="Ellipse_8" data-name="Ellipse 8" cx="2.023" cy="3.324" rx="2.023" ry="3.324" transform="translate(421.066 791.666) rotate(-1)" fill="var(--blackberry)"/>
    <ellipse id="Ellipse_9" data-name="Ellipse 9" cx="2.454" cy="2.454" rx="2.454" ry="2.454" transform="translate(440.538 793.066) rotate(-1)" fill="var(--blackberry)"/>
    <path id="Path_96" data-name="Path 96" d="M33.986,24.482,49.3,23.975,53.917,7.514,48.584,0,24.632.793,13.887,8.839,0,58.375l6.427,6.817,24.105-.8,9.5-7.344L46.9,32.537l-19.755.654-2.033,7.589,4.31-.024-2.276,8.12-8.428.279L27.7,17.126l8.428-.279Z" transform="translate(391.96 767.559) rotate(-1)" fill="var(--green)"/>
    <path id="Path_97" data-name="Path 97" d="M0,66.257,15.876,9.626,26.1,1.6l15.559-.515,6.376,7.895L57.749.55,74.358,0l5.18,7.519L63.662,64.15l-15.313.507,13.4-47.805-8.652.286L39.7,64.943l-16.088.532,13.4-47.805-7.621.252-13.4,47.805Z" transform="translate(487.679 761.865) rotate(-1)" fill="var(--green)"/>
    <path id="Path_98" data-name="Path 98" d="M0,58.639,13.887,9.1,24.337,1.067,56.573,0l-4.65,16.589-24.307.8-2.14,7.635,24.269-.546L45.221,40.5l-24.307.8-2.276,8.12,24.307-.8L38.521,64.394,6.285,65.461Z" transform="translate(561.798 758.676) rotate(-1)" fill="var(--green)"/>
    <path id="Path_99" data-name="Path 99" d="M18.065,1.357,0,65.728l16.342-.541,6.7-23.9,7.823-.259-6.7,23.9L40.271,64.5,58.38,0,42.217.535,35.426,24.758l-7.822.259L34.394.794Z" transform="translate(631.175 755.136) rotate(-1)" fill="var(--green)"/>
    <path id="Path_100" data-name="Path 100" d="M16.063,1.353,0,58.651l5.914,6.834,24.53-.812L40.875,57.3,56.938,0,40.618.54,26.989,49.157l-8.132.269L32.486.809Z" transform="translate(681.101 752.63) rotate(-1)" fill="var(--green)"/>
    <path id="Path_101" data-name="Path 101" d="M51.051,0,26.8.874,15.876,8.855,0,65.485l16.748-.553,4.423-15.777L28.9,48.9,24.473,64.675l16.419-.543L56.766,7.5ZM33.335,33.067l-7.725.256,4.539-16.2,7.726-.256Z" transform="translate(438.425 765.128) rotate(-1)" fill="var(--green)"/>
    <path id="Path_102" data-name="Path 102" d="M55.624,7.511,50.229,0,18.051,1.065,0,65.458l32.178-1.065,9.558-7.346,4.71-16.8L41.04,32.785l9.969-8.812ZM28.831,48.874l-8.264.273,2.276-8.119,8.266-.273ZM35.67,24.48l-8.266.273,2.14-7.635,8.266-.273Z" transform="translate(727.764 750.404) rotate(-1)" fill="var(--green)"/>
  </g>
</svg>
