<svg xmlns="http://www.w3.org/2000/svg" width="402.484" height="250.76" viewBox="0 0 402.484 250.76">
  <g id="Group_73" data-name="Group 73" transform="translate(-331.881 -1185.579)">
    <ellipse id="Ellipse_8" data-name="Ellipse 8" cx="2.023" cy="3.324" rx="2.023" ry="3.324" transform="translate(366.066 1390.666) rotate(-1)" fill="var(--blackberry)"/>
    <ellipse id="Ellipse_21" data-name="Ellipse 21" cx="108.208" cy="107.365" rx="108.208" ry="107.365" transform="translate(425.423 1189.941)" fill="#fff"/>
    <path id="Path_63" data-name="Path 63" d="M199.858,39.57C196.69,53.827,185.9,60.23,173.721,59.734c-11.136-.453-22.3-.143-33.46-.081-11.8.065-21.187,6.665-24.764,17.335-.457,1.359-.679,2.8-1.07,4.451,4.738,0,9.011.106,13.27-.071a5.486,5.486,0,0,0,3.356-1.507c9.057-9.19,20.027-13.538,32.785-11.857,23.121,3.051,37.78,23.823,32.725,46.524C193.318,129.106,184,138.8,169.582,142.842s-27.087.264-37.9-10.037a5.87,5.87,0,0,0-3.589-1.59c-9.895-.129-19.791,0-29.686-.125a7.742,7.742,0,0,0-6.127,2.44A38.343,38.343,0,1,1,93.52,79.673c.619.647,1.364,1.634,2.075,1.655,5.08.143,10.168.076,15.176.076.159-.583.242-.818.284-1.061,2.5-14.363,14.106-24.11,28.718-24.112,12.077,0,24.154.049,36.231-.014,11.016-.058,19.761-8.745,20.639-20.233a113.942,113.942,0,1,0,3.215,3.585Z" transform="translate(414.578 1190.539) rotate(-1)" fill="var(--blackberry)"/>
    <path id="Path_64" data-name="Path 64" d="M55.863,27.956A27.932,27.932,0,1,1,28.279,0,27.7,27.7,0,0,1,55.863,27.956ZM26.151,35.529a6.256,6.256,0,0,0-6.242-6.45,6.392,6.392,0,0,0-.086,12.784A6.2,6.2,0,0,0,26.151,35.529Zm0-15.236a6.162,6.162,0,0,0-6.186-6.447,6.294,6.294,0,0,0-6.434,6.267,6.221,6.221,0,0,0,6.253,6.408A6.073,6.073,0,0,0,26.151,20.293ZM42.357,35.6a6.278,6.278,0,0,0-6.175-6.517,6.531,6.531,0,0,0-6.506,6.29,6.417,6.417,0,0,0,6.281,6.489A6.229,6.229,0,0,0,42.357,35.6Zm0-15.365A6.142,6.142,0,0,0,36.1,13.854a6.4,6.4,0,0,0-6.431,6.318,6.314,6.314,0,0,0,6.364,6.353A6.054,6.054,0,0,0,42.357,20.235Z" transform="translate(548.057 1266.44) rotate(-1)" fill="var(--purple1)"/>
    <path id="Path_65" data-name="Path 65" d="M55.862,27.911A27.931,27.931,0,1,1,28.235,0,27.688,27.688,0,0,1,55.862,27.911ZM28.037,44.5c5.095-.021,4.763.531,4.761-4.719V37.269c0-3.947.005-3.88,4-3.963,8.532-.176,6.87,1.657,7.079-7.651.034-1.514-.633-2.168-2.089-2.115q-2.76.1-5.519.224c-3.037.141-3.561-.333-3.577-3.286-.007-1.174.012-2.348,0-3.52-.069-4.693.784-4.5-4.409-4.488-5.935.011-5.08-.457-5.16,5.057-.1,6.871,1.151,6.2-6.323,6.247-5.621.033-4.747-.506-4.767,4.853-.019,5.068-.7,4.684,4.722,4.691,6.371.007,6.38,0,6.367,6.316C23.114,44.885,22.763,44.52,28.037,44.5Z" transform="translate(454.472 1268.074) rotate(-1)" fill="var(--purple1)"/>
    <path id="Path_66" data-name="Path 66" d="M9.912,0V2.722H.185L0,0Z" transform="translate(519.385 1295.062) rotate(-1)" fill="var(--green)"/>
    <path id="Path_67" data-name="Path 67" d="M.129,2.685,0,0H9.9l.139,2.685Z" transform="translate(530.852 1294.833) rotate(-1)" fill="var(--green)"/>
    <path id="Path_68" data-name="Path 68" d="M12.618,6.45A6.2,6.2,0,0,1,6.29,12.784,6.281,6.281,0,0,1,0,6.36,6.327,6.327,0,0,1,6.376,0,6.257,6.257,0,0,1,12.618,6.45Z" transform="translate(562.096 1295.279) rotate(-1)" fill="var(--green)"/>
    <path id="Path_69" data-name="Path 69" d="M12.62,6.447a6.073,6.073,0,0,1-6.367,6.228A6.22,6.22,0,0,1,0,6.267,6.294,6.294,0,0,1,6.435,0,6.162,6.162,0,0,1,12.62,6.447Z" transform="translate(561.828 1280.048) rotate(-1)" fill="var(--green)"/>
    <path id="Path_70" data-name="Path 70" d="M12.683,6.518a6.229,6.229,0,0,1-6.4,6.261A6.418,6.418,0,0,1,0,6.291,6.531,6.531,0,0,1,6.507,0,6.278,6.278,0,0,1,12.683,6.518Z" transform="translate(578.234 1294.999) rotate(-1)" fill="var(--green)"/>
    <path id="Path_71" data-name="Path 71" d="M12.684,6.381a6.054,6.054,0,0,1-6.32,6.29A6.314,6.314,0,0,1,0,6.318,6.4,6.4,0,0,1,6.431,0,6.142,6.142,0,0,1,12.684,6.381Z" transform="translate(577.967 1279.774) rotate(-1)" fill="var(--green)"/>
    <path id="Path_72" data-name="Path 72" d="M16.043,32.038c-5.274.018-4.923.383-4.915-4.867.012-6.314,0-6.309-6.367-6.316-5.426-.007-4.742.377-4.722-4.691.019-5.359-.855-4.82,4.767-4.853,7.474-.048,6.225.624,6.323-6.247.079-5.514-.776-5.047,5.16-5.057C21.481,0,20.628-.2,20.7,4.494c.016,1.172,0,2.346,0,3.52.016,2.953.539,3.427,3.577,3.286q2.761-.127,5.519-.224c1.456-.053,2.122.6,2.089,2.115-.21,9.308,1.453,7.474-7.079,7.651-4,.083-4,.016-4,3.963v2.514C20.806,32.568,21.138,32.017,16.043,32.038Z" transform="translate(466.682 1280.327) rotate(-1)" fill="var(--green)"/>
    <rect id="Rectangle_42" data-name="Rectangle 42" width="23.543" height="0.441" transform="translate(517.868 1292.537) rotate(-1)" fill="var(--green)"/>
    <rect id="Rectangle_43" data-name="Rectangle 43" width="23.543" height="0.441" transform="translate(517.996 1299.92) rotate(-1)" fill="var(--green)"/>
    <path id="Path_91" data-name="Path 91" d="M65.51,74.9a2.648,2.648,0,0,1-2.478-1.724A122.3,122.3,0,0,0,2.564,5.569L1.427,4.99A2.644,2.644,0,1,1,3.865.3L4.945.846A127.524,127.524,0,0,1,67.99,71.333,2.649,2.649,0,0,1,65.51,74.9Z" transform="translate(579.57 1186.769) rotate(-1)" fill="var(--green)"/>
    <path id="Path_92" data-name="Path 92" d="M4.618,108.608a2.643,2.643,0,0,1-2.6-2.205C-7.641,49.078,20.065,14.249,29.17,2.8c.529-.663,1-1.257,1.408-1.782a2.644,2.644,0,1,1,4.176,3.245c-.418.538-.9,1.149-1.446,1.83C23.644,18.248-2.035,50.525,7.228,105.525a2.642,2.642,0,0,1-2.168,3.046A2.7,2.7,0,0,1,4.618,108.608Z" transform="translate(401.921 1220.796) rotate(-1)" fill="var(--green)"/>
    <path id="Path_93" data-name="Path 93" d="M6.394,16.721a2.647,2.647,0,0,1-2.486-1.743C2.387,10.775.812,5.86.1,3.368A2.645,2.645,0,0,1,5.189,1.92c.684,2.4,2.211,7.166,3.693,11.254a2.645,2.645,0,0,1-2.487,3.547Z" transform="translate(408.321 1334.719) rotate(-1)" fill="var(--green)"/>
    <path id="Path_94" data-name="Path 94" d="M199.072,1.146l-1.486.148-11.472,8.752-1.07.763-.481,1.32-.07.254-.448-.746-5.327-7.751L177.3,1.9l-18.982.628-1.719.159-7.3,6.334-4.839-6.034-17.642.587-1.572.012-11.407,8.955-1.2,1.072-.256.909L106,6.143l-1.549-1.969-2.3.21L78.216,5.25,76.73,5.26l-12.174,8.9-1.178.929-.324,1.156L55.728,5.92l-26.181.869L28.032,6.8,16.064,15.761l-1.082.857L14.555,17.9.583,67.725,0,70.117l8.164,8.657,1.4,1.378,25.852-.86,1.38-.011,1.123-.746,9.722-7.5.078-.069-.576,2.054L46.5,75.17l2.738,3.668,19.04-.628,3.252-.518L72.1,75.97l2.149,2.318,2.08-.346,15.939-.531,3.4-.018.813-2.9,2.066,2.639h2.246l15.878-.529,3.4-.018.6-2.133,1.546,1.969,18.312-.6,3.4-.543.74-2.644,2.221,2.974,17.457-.58,3.4-.018,2.773-9.893,1.149,1.149,6.2,6.727,1.775,1.765,1.971-.328,31.9-1.054,3.746-.6.485-2.9,4.319-15.41.684-2.068-2.112-2.923,2.665-.016,1.014-3.043,4.576-16.177.49-2.415-1.888-2.3,2.6-.231.927-2.785,4.659-16.6.733-2.027L233.683,0ZM33.98,39.122l.686-2.445,1.712,2.366Zm20.242-.247,2.491-.016-.659,2.355Z" transform="translate(331.881 1356.199) rotate(-1)" fill="var(--blackberry)"/>
    <path id="Path_95" data-name="Path 95" d="M155.538,2.076,154.133,0,119.514,1.146l-3.645.314-.356,1.957-1.67-2-18.456.611-3.171.275L91.4,4.745,89.628,2.222l-18.8.622-3.171.275-.651,1.952L65.324,3.056l-18.151.6-3.142.018-.876,2.407L41.572,3.839,22.93,4.483,19.88,4.5,18.814,7.431.683,71.987,0,74.054l2.732,3.779,18.528-.616L24.3,77.2l.947-2.367,2.124,2.477,2.179-.363,15.64-.422,3.038-.017,1.119-2.8,1.837-6.534.466.465,5.784,6.686,1.617,1.615,26.273-.873,1.6-.012,10.795-7.728-.4,1.441-.479,2.744,3.25,3.243,1.969-.329L133.9,73.376l1.716-.253,10.413-8,1.1-1.059.339-.849L152.3,46.085,152.975,44l-4.367-6.027L155.364,32l.945-.675.48-1.32L161.5,13.262l.427-2.3Z" transform="translate(571.107 1346.646) rotate(-1)" fill="var(--blackberry)"/>
    <ellipse id="Ellipse_9" data-name="Ellipse 9" cx="2.454" cy="2.454" rx="2.454" ry="2.454" transform="translate(385.538 1392.066) rotate(-1)" fill="var(--blackberry)"/>
    <path id="Path_96" data-name="Path 96" d="M33.986,24.482,49.3,23.975,53.917,7.514,48.584,0,24.632.793,13.887,8.839,0,58.375l6.427,6.817,24.105-.8,9.5-7.344L46.9,32.537l-19.755.654-2.033,7.589,4.31-.024-2.276,8.12-8.428.279L27.7,17.126l8.428-.279Z" transform="translate(336.96 1366.559) rotate(-1)" fill="var(--green)"/>
    <path id="Path_97" data-name="Path 97" d="M0,66.257,15.876,9.626,26.1,1.6l15.559-.515,6.376,7.895L57.749.55,74.358,0l5.18,7.519L63.662,64.15l-15.313.507,13.4-47.805-8.652.286L39.7,64.943l-16.088.532,13.4-47.805-7.621.252-13.4,47.805Z" transform="translate(432.679 1360.865) rotate(-1)" fill="var(--green)"/>
    <path id="Path_98" data-name="Path 98" d="M0,58.639,13.887,9.1,24.337,1.067,56.573,0l-4.65,16.589-24.307.8-2.14,7.635,24.269-.546L45.221,40.5l-24.307.8-2.276,8.12,24.307-.8L38.521,64.394,6.285,65.461Z" transform="translate(506.798 1357.676) rotate(-1)" fill="var(--green)"/>
    <path id="Path_99" data-name="Path 99" d="M18.065,1.357,0,65.728l16.342-.541,6.7-23.9,7.823-.259-6.7,23.9L40.271,64.5,58.38,0,42.217.535,35.426,24.758l-7.822.259L34.394.794Z" transform="translate(576.175 1354.136) rotate(-1)" fill="var(--green)"/>
    <path id="Path_100" data-name="Path 100" d="M16.063,1.353,0,58.651l5.914,6.834,24.53-.812L40.875,57.3,56.938,0,40.618.54,26.989,49.157l-8.132.269L32.486.809Z" transform="translate(626.101 1351.63) rotate(-1)" fill="var(--green)"/>
    <path id="Path_101" data-name="Path 101" d="M51.051,0,26.8.874,15.876,8.855,0,65.485l16.748-.553,4.423-15.777L28.9,48.9,24.473,64.675l16.419-.543L56.766,7.5ZM33.335,33.067l-7.725.256,4.539-16.2,7.726-.256Z" transform="translate(383.425 1364.128) rotate(-1)" fill="var(--green)"/>
    <path id="Path_102" data-name="Path 102" d="M55.624,7.511,50.229,0,18.051,1.065,0,65.458l32.178-1.065,9.558-7.346,4.71-16.8L41.04,32.785l9.969-8.812ZM28.831,48.874l-8.264.273,2.276-8.119,8.266-.273ZM35.67,24.48l-8.266.273,2.14-7.635,8.266-.273Z" transform="translate(672.764 1349.404) rotate(-1)" fill="var(--green)"/>
  </g>
</svg>
