<svg xmlns="http://www.w3.org/2000/svg" width="255.766" height="176.553" viewBox="0 0 255.766 176.553"><g transform="translate(-493.831 1893.563)"><circle cx="72.245" cy="72.245" r="72.245" transform="translate(547 -1892)" fill="#07c9a8"/><circle cx="72.245" cy="72.245" r="72.245" transform="translate(547 -1892)" fill="#fff"/><path d="M127,25.145c-2.013,9.06-8.869,13.129-16.609,12.814-7.076-.288-14.174-.091-21.263-.052-7.5.041-13.464,4.236-15.737,11.016-.29.864-.431,1.777-.68,2.829,3.011,0,5.727.067,8.433-.045a3.486,3.486,0,0,0,2.133-.958c5.756-5.84,12.727-8.6,20.834-7.534,14.693,1.939,24.008,15.138,20.8,29.564-2.062,9.263-7.984,15.421-17.146,17.992s-17.213.168-24.087-6.378a3.73,3.73,0,0,0-2.281-1.01c-6.288-.082-12.577,0-18.864-.08a4.92,4.92,0,0,0-3.894,1.55,24.366,24.366,0,1,1,.791-34.223c.393.411.867,1.039,1.318,1.052,3.228.091,6.461.048,9.644.048.1-.371.154-.52.18-.674A18.092,18.092,0,0,1,88.821,35.733c7.675,0,15.349.031,23.024-.009,7-.037,12.558-5.557,13.115-12.858A72.407,72.407,0,1,0,127,25.145Z" transform="translate(546 -1890.478) rotate(-1)" fill="#270045" stroke="#07c9a8" stroke-width="1"/><path d="M35.5,17.765A17.75,17.75,0,1,1,17.97,0,17.6,17.6,0,0,1,35.5,17.765ZM16.618,22.578a3.976,3.976,0,0,0-3.967-4.1A4.062,4.062,0,0,0,12.6,26.6,3.937,3.937,0,0,0,16.618,22.578Zm0-9.682a3.916,3.916,0,0,0-3.931-4.1A4,4,0,0,0,8.6,12.782a3.953,3.953,0,0,0,3.973,4.072A3.859,3.859,0,0,0,16.618,12.9Zm10.3,9.727a3.989,3.989,0,0,0-3.924-4.141,4.15,4.15,0,0,0-4.135,4A4.078,4.078,0,0,0,22.849,26.6,3.959,3.959,0,0,0,26.916,22.623Zm0-9.764A3.9,3.9,0,0,0,22.943,8.8a4.069,4.069,0,0,0-4.087,4.015A4.012,4.012,0,0,0,22.9,16.856,3.847,3.847,0,0,0,26.916,12.859Z" transform="translate(631.204 -1842.178) rotate(-1)" fill="#7700d1"/><path d="M35.5,17.736A17.749,17.749,0,1,1,17.942,0,17.6,17.6,0,0,1,35.5,17.736ZM17.817,28.28c3.237-.013,3.027.337,3.026-3v-1.6c0-2.508,0-2.466,2.543-2.518,5.422-.112,4.365,1.053,4.5-4.862.021-.962-.4-1.378-1.327-1.344q-1.754.064-3.507.142c-1.93.09-2.263-.212-2.273-2.088,0-.746.008-1.492,0-2.237-.044-2.982.5-2.858-2.8-2.852-3.772.007-3.228-.29-3.279,3.214-.063,4.367.731,3.94-4.018,3.97-3.572.021-3.017-.322-3.029,3.084-.012,3.221-.447,2.976,3,2.981,4.048,0,4.054,0,4.046,4.014C14.688,28.523,14.465,28.291,17.817,28.28Z" transform="translate(571.733 -1841.14) rotate(-1)" fill="#7700d1"/><path d="M6.3,0V1.73H.118L0,0Z" transform="translate(612.984 -1823.99) rotate(-1)" fill="#20f5c9"/><path d="M.082,1.706,0,0H6.291L6.38,1.706Z" transform="translate(620.27 -1824.135) rotate(-1)" fill="#20f5c9"/><path d="M8.018,4.1A3.938,3.938,0,0,1,4,8.124,3.991,3.991,0,0,1,0,4.042,4.021,4.021,0,0,1,4.052,0,3.976,3.976,0,0,1,8.018,4.1Z" transform="translate(640.125 -1823.852) rotate(-1)" fill="#20f5c9"/><path d="M8.02,4.1A3.859,3.859,0,0,1,3.974,8.054,3.953,3.953,0,0,1,0,3.983,4,4,0,0,1,4.089,0,3.916,3.916,0,0,1,8.02,4.1Z" transform="translate(639.955 -1833.531) rotate(-1)" fill="#20f5c9"/><path d="M8.059,4.142A3.959,3.959,0,0,1,3.992,8.121,4.078,4.078,0,0,1,0,4,4.15,4.15,0,0,1,4.135,0,3.99,3.99,0,0,1,8.059,4.142Z" transform="translate(650.38 -1824.03) rotate(-1)" fill="#20f5c9"/><path d="M8.06,4.055a3.847,3.847,0,0,1-4.016,4A4.012,4.012,0,0,1,0,4.015,4.069,4.069,0,0,1,4.087,0,3.9,3.9,0,0,1,8.06,4.055Z" transform="translate(650.211 -1833.705) rotate(-1)" fill="#20f5c9"/><path d="M10.195,20.359c-3.352.011-3.129.243-3.123-3.093.008-4.013,0-4.009-4.046-4.014-3.448,0-3.013.24-3-2.981C.037,6.866-.519,7.209,3.054,7.188c4.75-.03,3.956.4,4.018-3.97C7.122-.286,6.579.011,10.351,0c3.3-.006,2.758-.13,2.8,2.852.01.745,0,1.491,0,2.237.01,1.876.343,2.178,2.273,2.088q1.754-.081,3.507-.142c.925-.034,1.349.382,1.327,1.344-.133,5.915.923,4.75-4.5,4.862-2.539.053-2.541.01-2.543,2.518v1.6C13.222,20.7,13.432,20.346,10.195,20.359Z" transform="translate(579.492 -1833.354) rotate(-1)" fill="#20f5c9"/><path d="M3.138,2.211,0,2.329.358.322,8.948,0l-.38,2.009L5.43,2.126l-2.163,11.8-2.272.084Z" transform="translate(552.625 -1731.016) rotate(-1)" fill="#fff"/><path d="M6.767,6.868a2.453,2.453,0,0,0,.063-.537C6.8,5.571,6.273,5.283,5.509,5.312a3.214,3.214,0,0,0-2.177,1.5l-1.268,7L0,13.883,2.522.077,4.586,0,3.642,5.134a4.093,4.093,0,0,1,2.895-1.67c1.486-.056,2.425.711,2.472,1.964a5.115,5.115,0,0,1-.077.723L7.577,13.6l-2.043.076Z" transform="translate(560.759 -1731.299) rotate(-1)" fill="#fff"/><path d="M4.845,0C7.074-.079,8.511,1.286,8.6,3.687a9.359,9.359,0,0,1-.212,2.065L2.05,5.988a2.8,2.8,0,0,0-.056.72A2.143,2.143,0,0,0,4.448,8.756,3.5,3.5,0,0,0,6.625,7.79L7.376,9.1a4.759,4.759,0,0,1-3.113,1.349A3.742,3.742,0,0,1,0,6.577C-.1,3.847,1.643.123,4.845,0ZM6.737,3.593a1.838,1.838,0,0,0-2-1.92c-1.4.053-2.319,1.567-2.5,2.848l4.439-.165A3.067,3.067,0,0,0,6.737,3.593Z" transform="translate(571.138 -1728.34) rotate(-1)" fill="#fff"/><path d="M0,10.431A5.412,5.412,0,0,1,.085,9.3L1.714.356,4.005.271,2.357,9.254a5.5,5.5,0,0,0-.068.948,1.985,1.985,0,0,0,2.287,1.992c1.611-.059,2.4-1.075,2.743-2.918L9,.085,11.294,0,9.612,9.169c-.566,3.105-2.069,4.929-5.1,5.041C1.843,14.31.092,12.833,0,10.431Z" transform="translate(585.839 -1732.917) rotate(-1)" fill="#fff"/><path d="M6.767,3.407A2.452,2.452,0,0,0,6.83,2.87C6.8,2.11,6.273,1.822,5.613,1.847A3.254,3.254,0,0,0,3.332,3.33L2.065,10.346,0,10.422l1.837-10L3.9.348,3.642,1.673A4.094,4.094,0,0,1,6.536,0C8-.052,8.961.693,9.009,1.966a4.674,4.674,0,0,1-.077.723L7.577,10.14l-2.065.077Z" transform="translate(597.19 -1729.826) rotate(-1)" fill="#fff"/><path d="M1.838,4.276,3.9,4.2l-1.838,10L0,14.273ZM3.477,0a1.131,1.131,0,0,1,1.2,1.065,1.461,1.461,0,0,1-1.39,1.512A1.124,1.124,0,0,1,2.066,1.513,1.478,1.478,0,0,1,3.477,0Z" transform="translate(607.133 -1734.223) rotate(-1)" fill="#fff"/><path d="M0,.329,2.127.25,2.943,7.7,6.567.084,8.817,0,3.675,10.121l-2.23.083Z" transform="translate(612.367 -1730.49) rotate(-1)" fill="#fff"/><path d="M4.845,0C7.074-.079,8.51,1.285,8.6,3.687a9.307,9.307,0,0,1-.212,2.065L2.05,5.988a2.853,2.853,0,0,0-.056.72A2.142,2.142,0,0,0,4.448,8.755,3.494,3.494,0,0,0,6.625,7.79L7.377,9.1a4.761,4.761,0,0,1-3.114,1.349A3.743,3.743,0,0,1,0,6.577C-.1,3.846,1.644.122,4.845,0ZM6.736,3.593a1.835,1.835,0,0,0-1.994-1.92c-1.4.053-2.319,1.566-2.5,2.848l4.439-.165A3.068,3.068,0,0,0,6.736,3.593Z" transform="translate(620.886 -1731.058) rotate(-1)" fill="#fff"/><path d="M1.837.408,3.9.33,3.644,1.7A3.656,3.656,0,0,1,6.7,0L6.3,2.05A2.6,2.6,0,0,0,5.6,2,3.094,3.094,0,0,0,3.3,3.5l-1.232,6.83L0,10.4Z" transform="translate(630.35 -1731.622) rotate(-1)" fill="#fff"/><path d="M1.147,7.578A3.361,3.361,0,0,0,3.861,8.833,1.483,1.483,0,0,0,5.42,7.4c-.025-.677-.783-1.038-1.644-1.44C2.638,5.425,1.311,4.8,1.257,3.318A3.248,3.248,0,0,1,4.709,0,4.452,4.452,0,0,1,8.151,1.334L7.1,2.689A2.96,2.96,0,0,0,4.728,1.626c-.949.036-1.508.571-1.482,1.269.021.575.758.916,1.6,1.317C6,4.765,7.413,5.412,7.471,6.951a3.475,3.475,0,0,1-3.652,3.507A4.736,4.736,0,0,1,0,9Z" transform="translate(636.287 -1731.893) rotate(-1)" fill="#fff"/><path d="M4.846,0C7.075-.079,8.511,1.286,8.6,3.687A9.361,9.361,0,0,1,8.39,5.751l-6.339.236a2.856,2.856,0,0,0-.056.721A2.143,2.143,0,0,0,4.449,8.756,3.5,3.5,0,0,0,6.626,7.79L7.377,9.1a4.756,4.756,0,0,1-3.113,1.349A3.744,3.744,0,0,1,0,6.577C-.1,3.847,1.644.123,4.846,0ZM6.737,3.593a1.836,1.836,0,0,0-1.994-1.92c-1.4.053-2.319,1.567-2.5,2.848l4.439-.165A3.011,3.011,0,0,0,6.737,3.593Z" transform="translate(645.289 -1732.392) rotate(-1)" fill="#fff"/><path d="M4.843,0A3.613,3.613,0,0,1,8.873,3.822c.111,2.976-1.72,6.52-4.838,6.636A3.625,3.625,0,0,1,0,6.639C-.106,3.663,1.725.121,4.843,0Zm-.015,1.81C3.053,1.879,2.042,4.734,2.111,6.54,2.166,8,2.894,8.69,4.05,8.648c1.777-.066,2.786-2.92,2.719-4.726C6.714,2.463,5.984,1.772,4.828,1.814Z" transform="translate(659.445 -1733.167) rotate(-1)" fill="#fff"/><path d="M1.511,5.91l-1.3.049.326-1.8,1.3-.049.172-.931C2.367,1.13,3.4.064,5.033,0A3.4,3.4,0,0,1,6.72.332L6.056,1.9a1.281,1.281,0,0,0-.732-.178c-.7.026-1.1.493-1.27,1.383L3.9,4.034l1.652-.062-.325,1.8-1.652.062-1.513,8.2L0,14.108Z" transform="translate(669.565 -1737.471) rotate(-1)" fill="#fff"/><path d="M6.523,0A4.209,4.209,0,0,1,10.9,3.13L8.9,3.9A2.526,2.526,0,0,0,6.35,2.025c-2.4.09-4.1,4.265-3.991,7.159.074,1.97,1.108,3.083,2.8,3.02a3.156,3.156,0,0,0,2.271-1.2l.447-2.421L4.988,8.7l.379-2.029,5.059-.189L9.447,11.8a5.547,5.547,0,0,1-4.334,2.444C2.181,14.349.125,12.474.007,9.312-.144,5.288,2.269.162,6.523,0Z" transform="translate(679.777 -1738.106) rotate(-1)" fill="#fff"/><path d="M7.275.14,9.319.063l-1.838,10-2.063.076.241-1.283A3.188,3.188,0,0,1,3.113,10.47C1.3,10.538.093,9.308.005,7.008-.1,4.2,1.36.113,4.354,0A2.73,2.73,0,0,1,7.017,1.527Zm-3.3,8.489A2.631,2.631,0,0,0,5.967,7.157L6.724,3.1a2.007,2.007,0,0,0-1.93-1.306C3.017,1.861,2.072,4.773,2.141,6.6,2.191,7.936,2.9,8.67,3.974,8.629Z" transform="translate(691.408 -1734.893) rotate(-1)" fill="#fff"/><path d="M11.659,3.352a2.4,2.4,0,0,0,.063-.538,1,1,0,0,0-1.153-.964A3.032,3.032,0,0,0,8.536,3.322L7.268,10.34,5.2,10.416,6.476,3.543a3.946,3.946,0,0,0,.039-.6c-.02-.555-.427-.93-1.171-.9A3.038,3.038,0,0,0,3.333,3.517L2.066,10.533,0,10.609l1.838-10L3.9.535l-.26,1.325A3.759,3.759,0,0,1,6.372.2,1.99,1.99,0,0,1,8.619,1.7.356.356,0,0,1,8.6,1.84,3.983,3.983,0,0,1,11.575,0,2.039,2.039,0,0,1,13.9,1.951a3.855,3.855,0,0,1-.075.744l-1.354,7.451-2.066.076Z" transform="translate(701.319 -1735.705) rotate(-1)" fill="#fff"/><path d="M4.846,0C7.075-.079,8.511,1.286,8.6,3.687A9.293,9.293,0,0,1,8.39,5.751l-6.339.236a2.849,2.849,0,0,0-.056.72A2.143,2.143,0,0,0,4.449,8.756,3.5,3.5,0,0,0,6.626,7.79L7.378,9.1a4.761,4.761,0,0,1-3.114,1.349A3.744,3.744,0,0,1,0,6.577C-.1,3.847,1.644.122,4.846,0ZM6.737,3.593a1.835,1.835,0,0,0-1.994-1.92c-1.4.053-2.319,1.567-2.5,2.848l4.438-.165A3.009,3.009,0,0,0,6.737,3.593Z" transform="translate(716.546 -1736.287) rotate(-1)" fill="#fff"/><path d="M1.147,7.578A3.359,3.359,0,0,0,3.86,8.833,1.483,1.483,0,0,0,5.42,7.4c-.025-.678-.783-1.04-1.646-1.441C2.638,5.425,1.311,4.8,1.256,3.318A3.249,3.249,0,0,1,4.708,0,4.45,4.45,0,0,1,8.151,1.335L7.1,2.69A2.959,2.959,0,0,0,4.728,1.626c-.95.037-1.509.571-1.482,1.269.02.575.757.916,1.6,1.317C6,4.765,7.412,5.412,7.471,6.951a3.475,3.475,0,0,1-3.653,3.507A4.733,4.733,0,0,1,0,9Z" transform="translate(725.565 -1736.774) rotate(-1)" fill="#fff"/><path d="M49.758,0,0,1.782" transform="translate(497.929 -1728.653) rotate(-1)" fill="none" stroke="#fff" stroke-linecap="round" stroke-width="1.8"/><rect width="14.961" height="0.28" transform="translate(612.019 -1825.595) rotate(-1)" fill="#20f5c9"/><rect width="14.961" height="0.28" transform="translate(612.101 -1820.903) rotate(-1)" fill="#20f5c9"/><path d="M41.629,47.6a1.683,1.683,0,0,1-1.575-1.1A77.715,77.715,0,0,0,1.629,3.539L.907,3.171A1.68,1.68,0,1,1,2.456.189l.687.348A81.038,81.038,0,0,1,43.206,45.33,1.684,1.684,0,0,1,41.629,47.6Z" transform="translate(651.229 -1892.807) rotate(-1)" fill="#20f5c9"/><path d="M2.934,69.017a1.679,1.679,0,0,1-1.655-1.4C-4.856,31.188,12.751,9.055,18.537,1.782c.336-.421.636-.8.9-1.133a1.68,1.68,0,1,1,2.654,2.062c-.265.342-.574.73-.919,1.163C15.025,11.6-1.293,32.107,4.593,67.058a1.679,1.679,0,0,1-1.378,1.936A1.713,1.713,0,0,1,2.934,69.017Z" transform="translate(538.339 -1871.184) rotate(-1)" fill="#20f5c9"/><path d="M4.063,10.626a1.682,1.682,0,0,1-1.58-1.108C1.517,6.847.516,3.724.064,2.14A1.681,1.681,0,0,1,3.3,1.22c.435,1.528,1.4,4.554,2.347,7.151a1.681,1.681,0,0,1-1.581,2.254Z" transform="translate(542.406 -1798.79) rotate(-1)" fill="#20f5c9"/><path d="M126.5.728l-.944.094-7.29,5.562-.68.485-.306.839-.045.161-.284-.474L113.569,2.47l-.9-1.265-12.062.4-1.092.1L94.877,5.73,91.8,1.9l-11.211.373-1,.008L72.343,7.967l-.765.681-.162.578L67.36,3.9l-.985-1.251-1.464.133L49.7,3.336l-.944.007L41.023,9l-.748.59-.206.735-4.656-6.56-16.637.552-.962.007-7.605,5.7-.688.544-.271.812L.371,43.037,0,44.557l5.188,5.5.887.876L22.5,50.388l.877-.007.714-.474,6.178-4.769.049-.044L29.954,46.4l-.407,1.368,1.74,2.331,12.1-.4,2.067-.329.365-1.094,1.366,1.473,1.322-.22,10.129-.337,2.16-.011.516-1.843,1.313,1.677h1.427l10.09-.336,2.16-.011.38-1.355.982,1.251L89.3,48.181l2.161-.345.47-1.68,1.412,1.89,11.093-.368,2.16-.011,1.762-6.287.73.73,3.939,4.275,1.128,1.121,1.252-.208,20.273-.67,2.38-.382.308-1.842,2.744-9.793.435-1.314-1.342-1.857,1.694-.01.644-1.934,2.908-10.28.311-1.535-1.2-1.462,1.65-.147.589-1.77,2.961-10.55.466-1.288L148.5,0ZM21.593,24.861l.436-1.554,1.088,1.5ZM34.456,24.7l1.583-.01-.419,1.5Z" transform="translate(493.831 -1785.14) rotate(-1)" fill="#270045"/><path d="M98.84,1.319,97.947,0l-22,.728-2.316.2-.226,1.244L72.344.9l-11.728.388L58.6,1.466l-.516,1.549-1.129-1.6-11.944.4L43,1.983l-.413,1.241L41.511,1.942l-11.535.383-2,.011-.557,1.53L26.418,2.439l-11.846.409-1.938.011-.677,1.862L.434,45.745,0,47.059l1.736,2.4,11.774-.392,1.931-.011.6-1.5,1.35,1.574,1.385-.231,9.939-.268,1.931-.011.711-1.779,1.168-4.152.3.3L36.5,47.232l1.027,1.026,16.7-.555,1.014-.008,6.86-4.911-.257.916-.3,1.744L63.6,47.505,64.85,47.3l20.238-.668,1.091-.161L92.8,41.383l.7-.673.216-.539L96.78,29.286l.431-1.324-2.775-3.83,4.294-3.795.6-.429.305-.839,2.992-10.641.271-1.459Z" transform="translate(645.851 -1791.21) rotate(-1)" fill="#270045"/><ellipse cx="1.286" cy="2.112" rx="1.286" ry="2.112" transform="translate(515.554 -1763.237) rotate(-1)" fill="#270045"/><ellipse cx="1.559" cy="1.559" rx="1.559" ry="1.559" transform="translate(527.928 -1762.347) rotate(-1)" fill="#270045"/><path d="M21.6,15.558l9.733-.322,2.932-10.46L30.874,0,15.653.5,8.824,5.617,0,37.1l4.084,4.332L19.4,40.92l6.036-4.667L29.8,20.676l-12.554.415-1.292,4.822L18.7,25.9l-1.447,5.16-5.356.177L17.6,10.883l5.356-.177Z" transform="translate(497.058 -1778.556) rotate(-1)" fill="#20f5c9"/><path d="M0,42.1,10.088,6.117l6.5-5.1L26.474.688,30.526,5.7,36.7.349,47.252,0l3.292,4.778L40.455,40.765l-9.731.322L39.24,10.709l-5.5.182L25.226,41.269,15,41.608l8.516-30.379-4.843.16L10.16,41.768Z" transform="translate(557.885 -1782.175) rotate(-1)" fill="#20f5c9"/><path d="M0,37.263,8.825,5.785,15.466.678,35.95,0,33,10.542l-15.447.511L16.189,15.9l15.422-.347L28.736,25.735l-15.447.511-1.447,5.16,15.447-.511L24.479,40.92,3.994,41.6Z" transform="translate(604.985 -1784.201) rotate(-1)" fill="#20f5c9"/><path d="M11.48.862,0,41.768l10.385-.344,4.257-15.186,4.971-.164L15.356,41.26l10.235-.275L37.1,0,26.827.34,22.512,15.733l-4.971.164L21.856.5Z" transform="translate(649.072 -1786.45) rotate(-1)" fill="#20f5c9"/><path d="M10.207.86,0,37.271l3.758,4.343L19.346,41.1l6.629-4.686L36.182,0,25.811.343,17.151,31.238l-5.168.171L20.644.514Z" transform="translate(680.798 -1788.043) rotate(-1)" fill="#20f5c9"/><path d="M32.441,0,17.03.556,10.089,5.627,0,41.613l10.643-.352,2.811-10.026,4.909-.162L15.552,41.1l10.434-.345L36.073,4.766ZM21.183,21.013l-4.909.162,2.885-10.292,4.91-.162Z" transform="translate(526.586 -1780.101) rotate(-1)" fill="#20f5c9"/><path d="M35.347,4.773,31.919,0,11.471.677,0,41.6l20.448-.677,6.074-4.668,2.993-10.677-3.436-4.742,6.335-5.6ZM18.321,31.058l-5.252.174,1.446-5.16,5.253-.174Zm4.346-15.5-5.253.174,1.36-4.852,5.253-.174Z" transform="translate(710.451 -1789.458) rotate(-1)" fill="#20f5c9"/></g></svg>